<?xml version="1.0" encoding="utf-8"?>
<!-- Generator: Adobe Illustrator 25.2.1, SVG Export Plug-In . SVG Version: 6.00 Build 0)  -->
<svg version="1.1" id="Layer_1" xmlns="http://www.w3.org/2000/svg" xmlns:xlink="http://www.w3.org/1999/xlink" x="0px" y="0px"
	 viewBox="0 0 400 400" style="enable-background:new 0 0 400 400;" xml:space="preserve">
<style type="text/css">
	.st0{fill:#FFFFFF;}
	.st1{fill:#0082CA;}
</style>
<rect class="st0" width="400" height="400"/>
<g>
	<g>
		<g>
			<path class="st1" d="M296.5,120.5c-4.7-4.7-12.3-4.7-17,0l-79.9,79.9l-20.2-20.2c-4.7-4.7-12.3-4.7-17,0s-4.7,12.3,0,17
				l28.3,28.3c1.8,1.8,4,2.9,6.2,3.3c3.9,0.9,8.2-0.1,11.3-3.2l88.2-88.2C301.2,132.8,301.2,125.2,296.5,120.5z"/>
			<path class="st1" d="M261,218c-4.3,0-8,2.3-10.2,5.6h-0.1c-0.1,0.2-0.2,0.4-0.3,0.6c-0.2,0.3-0.3,0.6-0.4,0.9
				c-9.2,18.3-28.2,30.9-50,30.9c-30.9,0-56-25.1-56-56s25.1-56,56-56c6.6,0,12-5.4,12-12c0-6.6-5.4-12-12-12c-44.2,0-80,35.8-80,80
				s35.8,80,80,80c31.4,0,58.5-18.1,71.6-44.4l0,0c0.9-1.7,1.4-3.6,1.4-5.6C273,223.4,267.6,218,261,218z"/>
		</g>
	</g>
	<g>
		<g>
			<path class="st1" d="M359.5,199.5c0-88.4-71.6-160-160-160s-160,71.6-160,160s71.6,160,160,160c24.5,0,47.7-5.5,68.5-15.4
				c-3.7-1.9-6.3-5.8-6.4-10.2c-18.9,8.7-39.9,13.6-62,13.6c-81.7,0-148-66.3-148-148s66.3-148,148-148s148,66.3,148,148
				c0,31.5-9.8,60.6-26.6,84.6c2.8,2.2,4.6,5.6,4.6,9.4v4.6C346.8,270.9,359.5,236.7,359.5,199.5z"/>
			<path class="st1" d="M311.5,289.5h-36c-3.3,0-6,2.7-6,6c0,3.3,2.7,6,6,6h30v10c0,3.3,2.7,6,6,6c3.3,0,6-2.7,6-6v-16
				C317.5,292.2,314.8,289.5,311.5,289.5z"/>
			<path class="st1" d="M309.5,325.5h-28v-12c0-3.3-2.7-6-6-6c-3.3,0-6,2.7-6,6v18c0,3.3,2.7,6,6,6h34c3.3,0,6-2.7,6-6
				C315.5,328.2,312.8,325.5,309.5,325.5z"/>
		</g>
	</g>
</g>
</svg>
